<svg width="19" height="14" viewBox="0 0 19 14" fill="none" xmlns="http://www.w3.org/2000/svg">
<path d="M16.8683 0.787018H2.04007C1.16643 0.787018 0.458862 1.49935 0.458862 2.36905V11.8612C0.458862 12.7361 1.17163 13.4433 2.04007 13.4433H16.8683C17.7346 13.4433 18.4495 12.7391 18.4495 11.8612V2.36905C18.4495 1.5009 17.7447 0.787018 16.8683 0.787018ZM16.6468 1.84171C16.3238 2.16321 10.7642 7.69638 10.5723 7.88742C10.2736 8.18625 9.87652 8.35078 9.45416 8.35078C9.03181 8.35078 8.63475 8.18621 8.33509 7.88644C8.20599 7.75794 2.70779 2.28587 2.26151 1.84171H16.6468ZM1.513 11.6466V2.58438L6.06821 7.11795L1.513 11.6466ZM2.26217 12.3886L6.81559 7.86176L7.59069 8.63319C8.08846 9.13121 8.75025 9.40547 9.45416 9.40547C10.1581 9.40547 10.8199 9.13121 11.3166 8.63417L12.0927 7.86176L16.6462 12.3886H2.26217ZM17.3953 11.6466L12.8401 7.11795L17.3953 2.58438V11.6466Z" fill="#CCCCCC"/>
</svg>
