<svg width="19" height="20" viewBox="0 0 19 20" fill="none" xmlns="http://www.w3.org/2000/svg">
<path d="M11.1427 13.1488L11.1441 13.1494C11.1774 13.1655 11.2117 13.1819 11.2466 13.1986C11.2952 13.2218 11.345 13.2456 11.3948 13.2699L12.6234 12.1302L11.1427 13.1488ZM11.1427 13.1488C10.9961 13.0805 10.8629 13.0185 10.7502 12.9534C9.5626 12.2513 8.48193 11.3358 7.44382 10.1488C6.96488 9.58532 6.63841 9.10998 6.39915 8.63448C6.6789 8.39323 6.94175 8.14499 7.19585 7.90501C7.22488 7.8776 7.25379 7.85029 7.2826 7.82311C7.3395 7.77015 7.39635 7.7163 7.45282 7.66281L7.45305 7.66259C7.50978 7.60885 7.56613 7.55547 7.62243 7.50308C8.06338 7.0927 8.29189 6.61359 8.29189 6.12631C8.29189 5.63902 8.06338 5.15991 7.62243 4.74953L6.51727 3.72099C6.39155 3.604 6.26321 3.48454 6.14311 3.36531L6.14312 3.3653M11.1427 13.1488L6.14312 3.3653M6.14312 3.3653L6.14197 3.3642M6.14312 3.3653L6.14197 3.3642M6.14197 3.3642C5.89922 3.13075 5.64296 2.88842 5.37805 2.66078C4.96886 2.2844 4.47608 2.08169 3.95544 2.08169C3.43448 2.08169 2.93362 2.28463 2.51242 2.66094L2.51241 2.66093M6.14197 3.3642L2.51241 2.66093M2.51241 2.66093L2.51092 2.66231M2.51241 2.66093L2.51092 2.66231M2.51092 2.66231L2.50687 2.66608L2.50282 2.66985L2.5025 2.67015M2.51092 2.66231L2.5025 2.67015M2.5025 2.67015L1.12643 3.96212C1.12638 3.96217 1.12632 3.96222 1.12626 3.96227C0.591014 4.46048 0.283719 5.07054 0.216544 5.77777L0.216542 5.77777M2.5025 2.67015L0.216542 5.77777M0.216542 5.77777L0.216484 5.77843M0.216542 5.77777L0.216484 5.77843M0.216484 5.77843C0.11717 6.90298 0.472959 7.94605 0.741366 8.61975L0.216484 5.77843ZM3.85682 13.457L3.85659 13.4568C2.38906 11.8148 1.40235 10.2792 0.741369 8.61976L3.85682 13.457ZM3.85682 13.457C5.63928 15.4378 7.78405 17.0021 10.2337 18.1041L10.2343 18.1044M3.85682 13.457L10.2343 18.1044M10.2343 18.1044C11.1679 18.5161 12.4241 19.0083 13.8312 19.0923L13.8327 19.0924M10.2343 18.1044L13.8327 19.0924M13.8327 19.0924C13.9174 19.0961 14.0086 19.1 14.0922 19.1C15.0518 19.1 15.8634 18.7782 16.4991 18.136L16.5092 18.1257M13.8327 19.0924L16.5092 18.1257M16.5092 18.1257L16.5105 18.1234M16.5092 18.1257L16.5105 18.1234M16.5105 18.1234C16.5118 18.1221 16.5131 18.1207 16.5145 18.1192C16.5172 18.1162 16.5203 18.1125 16.5236 18.108C16.7135 17.8946 16.9305 17.6994 17.164 17.4892C17.1823 17.4728 17.2007 17.4562 17.2192 17.4395C17.3937 17.2846 17.573 17.1216 17.7485 16.9506C18.1647 16.5476 18.3902 16.0709 18.3902 15.5753C18.3902 15.0754 18.1601 14.6018 17.7348 14.2098C17.7347 14.2097 17.7346 14.2096 17.7345 14.2095L15.5139 12.1353C15.5136 12.1351 15.5134 12.1349 15.5132 12.1346C15.104 11.7384 14.6063 11.5232 14.076 11.5232C13.5498 11.5232 13.0485 11.7346 12.6235 12.13L16.5105 18.1234ZM5.67998 4.5138C5.61571 4.45211 5.55144 4.39136 5.48767 4.33107C5.42289 4.26984 5.35863 4.20909 5.2954 4.14835L5.67998 4.5138ZM5.67998 4.5138L6.78514 5.54234C7.21425 5.9417 7.21425 6.31092 6.78514 6.71028C6.74587 6.74683 6.70704 6.78338 6.66837 6.81979C6.59145 6.89222 6.51512 6.96408 6.43699 7.03428M5.67998 4.5138L6.43699 7.03428M6.43699 7.03428C6.09694 7.35829 5.77309 7.6597 5.42089 7.95357M6.43699 7.03428L5.42089 7.95357M5.42089 7.95357C5.41802 7.95623 5.41516 7.95843 5.41247 7.96049C5.40757 7.96424 5.40327 7.96754 5.40065 7.9724M5.42089 7.95357L5.19014 8.82764M5.40065 7.9724C5.05251 8.29641 5.11728 8.61289 5.19014 8.82764M5.40065 7.9724L5.33252 7.8992C5.3301 7.90146 5.32769 7.90371 5.32531 7.90597M5.40065 7.9724L5.31256 7.92508C5.31651 7.91772 5.32093 7.91136 5.32531 7.90597M5.19014 8.82764L5.20229 8.86154L5.19014 8.82764ZM5.32531 7.90597C5.14081 8.08028 5.0594 8.2589 5.03828 8.42865C5.01727 8.59759 5.05739 8.74759 5.09545 8.85977L5.09543 8.85977L5.096 8.86135L5.10207 8.87831L5.10815 8.89526L5.10789 8.89535L5.11088 8.90209C5.40332 9.56143 5.81424 10.1798 6.43353 10.9116L6.43298 10.9121L6.44174 10.9202L6.44198 10.9205C7.56441 12.2066 8.74947 13.211 10.058 13.9812C10.2282 14.0816 10.4019 14.1624 10.5626 14.2372L10.5645 14.2381C10.7113 14.3064 10.8446 14.3685 10.9574 14.4337L10.9572 14.434L10.9652 14.4378C10.9685 14.4393 10.9725 14.4415 10.9814 14.4467C10.9887 14.451 11.0008 14.4581 11.0138 14.4641C11.1631 14.5336 11.307 14.5677 11.4568 14.5677C11.8321 14.5677 12.067 14.3491 12.1394 14.2816L12.1402 14.2809L13.5247 12.9924C13.657 12.8693 13.8516 12.7366 14.0679 12.7366C14.28 12.7366 14.4623 12.8621 14.5794 12.9816L14.5793 12.9817L14.5827 12.9849L14.5867 12.9886L14.5908 12.9924L16.8214 15.0683L16.8217 15.0686C17.0187 15.2502 17.1023 15.4206 17.1027 15.5793C17.1031 15.736 17.0226 15.9073 16.8334 16.0933C16.8268 16.0979 16.8198 16.104 16.8133 16.112C16.8122 16.1133 16.8109 16.115 16.8095 16.1169C16.6861 16.2398 16.5602 16.3537 16.4255 16.4756C16.3951 16.5031 16.3642 16.5311 16.3328 16.5596M5.32531 7.90597C5.33415 7.89506 5.34279 7.88809 5.34689 7.88481L5.35117 7.88148L5.35335 7.8798M5.35335 7.8798L5.35277 7.88036C5.35338 7.87979 5.35381 7.87944 5.35381 7.87944C5.35381 7.87944 5.35367 7.87955 5.35335 7.8798ZM5.35335 7.8798L5.35673 7.87667L5.35683 7.87678C5.70643 7.58508 6.02837 7.28551 6.36801 6.96189L6.37013 6.95987L6.37016 6.9599C6.44745 6.89045 6.52227 6.82 6.59864 6.74809C6.63752 6.71148 6.6768 6.6745 6.71701 6.63707C6.92237 6.44596 7.00697 6.27846 7.00697 6.12631C7.00697 5.97415 6.92237 5.80666 6.71701 5.61554L5.61185 4.587L5.61073 4.58595L5.61073 4.58594C5.54679 4.52458 5.48281 4.46409 5.419 4.40377L5.41747 4.40233C5.35326 4.34162 5.2892 4.28106 5.22612 4.22046L5.2261 4.22044C4.97936 3.98328 4.74606 3.76244 4.5011 3.54941L4.49855 3.5472L4.49859 3.54716L4.49252 3.54151L4.48645 3.53585C4.364 3.42189 4.18113 3.29892 3.96354 3.29892C3.78874 3.29892 3.6011 3.37861 3.41517 3.54071L2.03589 4.82436C1.71726 5.1209 1.54689 5.46377 1.50871 5.87909C1.44987 6.54759 1.58239 7.26209 1.95532 8.19135L1.95544 8.19164C2.56144 9.71554 3.47725 11.1374 4.85167 12.6791C6.51415 14.526 8.51464 15.9833 10.7932 17.0099C11.6289 17.3818 12.7325 17.8125 13.9159 17.8829L13.9162 17.883C13.9733 17.8865 14.0349 17.8865 14.0962 17.8865C14.7027 17.8865 15.1579 17.7038 15.5461 17.3183C15.8002 17.0401 16.0698 16.7931 16.3328 16.5596M16.3328 16.5596C16.333 16.5595 16.3331 16.5593 16.3333 16.5592L16.3996 16.634M16.3328 16.5596C16.3327 16.5597 16.3325 16.5599 16.3324 16.56L16.3996 16.634M16.3996 16.634C16.1365 16.8676 15.8693 17.1125 15.6183 17.3875C15.2095 17.7944 14.7277 17.9865 14.0962 17.9865L16.3996 16.634ZM16.9186 16.08C16.932 16.0839 16.9476 16.0916 16.9611 16.105C16.94 16.1281 16.9174 16.1512 16.8935 16.1743V16.0761C16.9011 16.0763 16.9096 16.0774 16.9186 16.08Z" fill="#CCCCCC" stroke="#E5E5E5" stroke-width="0.2"/>
<path d="M14.5946 10.9527L14.5946 10.9528L14.5987 10.952C14.944 10.8884 15.1524 10.5266 15.1011 10.1668L15.1009 10.1661C14.8932 8.78109 14.3158 7.51679 13.433 6.51411C12.55 5.51132 11.4334 4.85218 10.2063 4.61478L10.2063 4.61478L10.2054 4.61462C9.85822 4.55067 9.55244 4.81304 9.49618 5.17183C9.44052 5.52681 9.64406 5.89432 9.99041 5.95832C10.9614 6.14358 11.8458 6.6658 12.5538 7.46993C13.2618 8.27399 13.7211 9.28219 13.8893 10.394C13.9372 10.7197 14.1893 10.9623 14.4932 10.9623C14.5282 10.9623 14.5595 10.9578 14.5856 10.954C14.5887 10.9536 14.5917 10.9531 14.5946 10.9527Z" fill="#CCCCCC" stroke="#CCCCCC" stroke-width="0.2"/>
<path d="M9.64085 1.46774L9.64084 1.46774L9.64065 1.46909C9.58909 1.83017 9.79863 2.1856 10.1416 2.25402L10.1416 2.25402L10.1422 2.25415C11.8881 2.59028 13.4827 3.53093 14.7527 4.96906C16.0227 6.4114 16.8502 8.22598 17.1475 10.2174C17.1954 10.5431 17.4475 10.7857 17.7515 10.7857C17.7864 10.7857 17.8178 10.7812 17.8438 10.7774C17.8469 10.7769 17.8499 10.7765 17.8528 10.7761L17.8529 10.7761L17.8557 10.7756C18.1975 10.7171 18.411 10.355 18.3554 9.99814C18.0147 7.72911 17.0729 5.66271 15.6242 4.01747C14.1755 2.37222 12.3529 1.29916 10.3476 0.910778C10.0013 0.841005 9.69674 1.11133 9.64085 1.46774Z" fill="#CCCCCC" stroke="#E5E5E5" stroke-width="0.2"/>
</svg>
